<svg width="78" height="96" viewBox="0 0 78 96" fill="none" xmlns="http://www.w3.org/2000/svg">
<path fill-rule="evenodd" clip-rule="evenodd" d="M46.1324 46.1192C47.1638 43.7184 47.598 41.6153 47.8287 39.9765C49.9728 24.296 37.4881 15.7029 24.2162 11.7622C20.6608 10.7044 14.8527 10.2851 10.4695 11.8755C7.389 12.9918 5.00059 15.0763 4.40349 18.517C3.73854 22.2656 5.5706 26.182 8.52894 29.7149C12.8036 34.8281 19.4124 39.1551 23.5649 41.0341C28.3552 43.1999 36.104 45.743 43.9748 47.2333C42.6585 49.7352 40.6636 52.5045 37.5696 55.3633C36.1989 56.6389 34.3127 57.7295 32.1686 58.6064C30.5537 55.4707 28.2467 52.5142 25.2477 49.9057C22.7236 47.7166 16.5626 44.1155 11.1073 43.0103C7.21261 42.2245 3.68432 42.7305 1.8116 45.5437C-0.508933 49.0406 0.305237 52.2998 2.57149 55.0261C5.76053 58.8665 11.9351 61.5953 15.5855 62.2683C19.8331 63.0492 26.1297 62.3248 31.4086 60.4487C36.3075 71.3315 32.7385 84.1323 21.2579 91.1726C20.9187 91.3856 20.8101 91.8402 21.0137 92.1877C21.2308 92.5351 21.6922 92.6436 22.0315 92.4305C34.177 84.9791 37.9766 71.4358 32.8063 59.914C35.0861 58.9752 37.1081 57.8087 38.5737 56.4469C41.9799 53.2955 44.124 50.2432 45.4946 47.508C46.9738 47.762 48.453 47.9752 49.9186 48.1383C56.5002 48.8745 62.6747 48.5701 66.7322 46.4526C76.1094 41.5606 78.7149 31.8692 76.9372 22.409C75.173 13.0399 69.1071 3.93239 61.2499 0.0755499C60.8835 -0.103986 60.4357 0.047461 60.2593 0.413319C60.0828 0.779312 60.2321 1.22212 60.5985 1.40152C68.0758 5.07149 73.816 13.7662 75.4851 22.6812C77.1407 31.5054 74.793 40.58 66.0537 45.1431C62.1861 47.153 56.3374 47.3694 50.0815 46.6705C48.7787 46.5251 47.4623 46.3389 46.1324 46.1192ZM30.7707 59.1398C29.2373 56.2165 27.0797 53.4578 24.2706 51.0208C21.8686 48.9365 16.0198 45.5103 10.8087 44.4579C7.57899 43.8053 4.59348 44.0247 3.04645 46.3609C1.1466 49.2101 1.86588 51.8619 3.71146 54.0832C6.6698 57.6641 12.4508 60.1883 15.8569 60.8158C19.8466 61.5517 25.7904 60.8904 30.7707 59.1398ZM44.6397 45.8559C45.6982 43.4739 46.1324 41.3892 46.3631 39.7764C48.3987 24.9091 36.3754 16.9144 23.7956 13.178C20.4844 12.1913 15.0699 11.7804 10.9716 13.2639C8.40681 14.197 6.35765 15.8971 5.85555 18.7731C5.25845 22.1319 7.00903 25.6012 9.65526 28.7669C13.7807 33.7015 20.1723 37.8752 24.1756 39.6886C28.9659 41.8547 36.7553 44.4031 44.6397 45.8559Z" fill="white"/>
<path fill-rule="evenodd" clip-rule="evenodd" d="M22.1836 91.3861C22.455 90.6832 23.2285 88.6571 23.3371 88.3477C23.6357 87.4792 23.6628 87.0015 23.6357 86.513C23.6085 86.1208 23.5271 85.7178 23.5678 84.9795C23.595 84.5724 23.2693 84.2264 22.8621 84.206C22.455 84.1857 22.1157 84.5005 22.0886 84.9076C22.0615 85.5766 22.1022 86.0014 22.1429 86.3732C22.1837 86.802 22.1972 87.1359 21.9394 87.8673C21.8173 88.2242 20.9216 90.1363 20.6909 91.0862C20.5688 91.5815 20.6366 91.9534 20.7316 92.1162C20.8673 92.3496 21.1116 92.5694 21.4916 92.7201C21.9801 92.9114 22.7943 93.0227 23.7035 93.1679C24.5585 93.3023 25.5219 93.4732 26.3633 93.8342C27.0689 94.1423 27.6797 94.5874 27.9782 95.3283C28.1275 95.7069 28.5482 95.8942 28.9281 95.7449C29.3081 95.5956 29.498 95.1655 29.3488 94.7869C28.9145 93.6659 28.019 92.9454 26.9469 92.4799C25.997 92.0687 24.9113 91.8611 23.9343 91.7091C23.3507 91.6155 22.8079 91.5435 22.3872 91.4472C22.3193 91.4323 22.2515 91.4092 22.1836 91.3861Z" fill="white"/>
</svg>
